<?xml version="1.0" encoding="utf-8"?>
<COLLADA xmlns="http://www.collada.org/2005/11/COLLADASchema" version="1.4.1" xmlns:xsi="http://www.w3.org/2001/XMLSchema-instance">
  <asset>
    <contributor>
      <author>Blender User</author>
      <authoring_tool>Blender 3.0.1</authoring_tool>
    </contributor>
    <created>2026-06-09T13:22:13</created>
    <modified>2026-06-09T13:22:13</modified>
    <unit name="meter" meter="1"/>
    <up_axis>Z_UP</up_axis>
  </asset>
  <library_lights>
    <light id="Light-light" name="Light">
      <technique_common>
        <point>
          <color sid="color">1000 1000 1000</color>
          <constant_attenuation>1</constant_attenuation>
          <linear_attenuation>0</linear_attenuation>
          <quadratic_attenuation>0.00111109</quadratic_attenuation>
        </point>
      </technique_common>
      <extra>
        <technique profile="blender">
          <type sid="type" type="int">0</type>
          <flag sid="flag" type="int">0</flag>
          <mode sid="mode" type="int">1</mode>
          <gamma sid="blender_gamma" type="float">1</gamma>
          <red sid="red" type="float">1</red>
          <green sid="green" type="float">1</green>
          <blue sid="blue" type="float">1</blue>
          <shadow_r sid="blender_shadow_r" type="float">0</shadow_r>
          <shadow_g sid="blender_shadow_g" type="float">0</shadow_g>
          <shadow_b sid="blender_shadow_b" type="float">0</shadow_b>
          <energy sid="blender_energy" type="float">1000</energy>
          <dist sid="blender_dist" type="float">29.99998</dist>
          <spotsize sid="spotsize" type="float">75</spotsize>
          <spotblend sid="spotblend" type="float">0.15</spotblend>
          <att1 sid="att1" type="float">0</att1>
          <att2 sid="att2" type="float">1</att2>
          <falloff_type sid="falloff_type" type="int">2</falloff_type>
          <clipsta sid="clipsta" type="float">0.04999995</clipsta>
          <clipend sid="clipend" type="float">30.002</clipend>
          <bias sid="bias" type="float">1</bias>
          <soft sid="soft" type="float">3</soft>
          <bufsize sid="bufsize" type="int">2880</bufsize>
          <samp sid="samp" type="int">3</samp>
          <buffers sid="buffers" type="int">1</buffers>
          <area_shape sid="area_shape" type="int">1</area_shape>
          <area_size sid="area_size" type="float">0.1</area_size>
          <area_sizey sid="area_sizey" type="float">0.1</area_sizey>
          <area_sizez sid="area_sizez" type="float">1</area_sizez>
        </technique>
      </extra>
    </light>
  </library_lights>
  <library_effects>
    <effect id="SWMaterial-2_001-effect">
      <profile_COMMON>
        <technique sid="common">
          <lambert>
            <emission>
              <color sid="emission">0 0 0 1</color>
            </emission>
            <diffuse>
              <color sid="diffuse">0.371451 0.371451 0.371451 1</color>
            </diffuse>
            <index_of_refraction>
              <float sid="ior">1</float>
            </index_of_refraction>
          </lambert>
        </technique>
      </profile_COMMON>
    </effect>
    <effect id="SWMaterial-0_001-effect">
      <profile_COMMON>
        <technique sid="common">
          <lambert>
            <emission>
              <color sid="emission">0 0 0 1</color>
            </emission>
            <diffuse>
              <color sid="diffuse">0.1781961 0.1781961 0.1781961 1</color>
            </diffuse>
            <index_of_refraction>
              <float sid="ior">1</float>
            </index_of_refraction>
          </lambert>
        </technique>
      </profile_COMMON>
    </effect>
    <effect id="SWMaterial-1_001-effect">
      <profile_COMMON>
        <technique sid="common">
          <lambert>
            <emission>
              <color sid="emission">0 0 0 1</color>
            </emission>
            <diffuse>
              <color sid="diffuse">0.3137255 0.4341961 0.512 1</color>
            </diffuse>
            <index_of_refraction>
              <float sid="ior">1</float>
            </index_of_refraction>
          </lambert>
        </technique>
      </profile_COMMON>
    </effect>
  </library_effects>
  <library_images/>
  <library_materials>
    <material id="SWMaterial-2_001-material" name="SWMaterial-2_001">
      <instance_effect url="#SWMaterial-2_001-effect"/>
    </material>
    <material id="SWMaterial-0_001-material" name="SWMaterial-0_001">
      <instance_effect url="#SWMaterial-0_001-effect"/>
    </material>
    <material id="SWMaterial-1_001-material" name="SWMaterial-1_001">
      <instance_effect url="#SWMaterial-1_001-effect"/>
    </material>
  </library_materials>
  <library_geometries>
    <geometry id="shape0_001-mesh" name="shape0.001">
      <mesh>
        <source id="shape0_001-mesh-positions">
          <float_array id="shape0_001-mesh-positions-array" count="270">-0.01877993 -0.07444912 0.01913249 -0.01407361 -0.07515591 0.01745265 0.01036149 -0.07634872 0.008555293 -0.01031965 -0.07629144 0.02934235 -0.01026815 -0.0748704 0.00902301 0.01196074 -0.07673227 0.02788609 0.01310312 -0.07537305 0.01976066 0.009485721 -0.074 0.02852833 -0.01106601 -0.07406497 0.03158056 0.0123192 -0.07352524 0.01267713 0.01188325 -0.07470005 0.03398424 0.02036511 -0.07466149 0.01905387 0.01205766 -0.07511049 0.00419861 -0.0122922 -0.07400602 0.004541873 -0.01182788 -0.0759707 0.00429672 -0.01204323 -0.07596772 0.03367203 0.01599597 -0.0761286 0.01689153 -0.01658374 -0.07497215 0.01951098 -0.01333433 -0.07464379 0.02029651 0.016101 -0.074 0.01743429 0.01633977 -0.07396638 0.01912575 -1.70938e-4 0.06904536 0.03463578 0.001488208 0.07467395 0.0350269 -6.21801e-4 0.07451319 0.03482729 0.03631108 0.06730312 0.01370954 -0.06621205 0.05663859 -6.69044e-6 -0.05973064 0.07002228 2.18756e-5 0.05659228 0.05700457 1.3159e-4 0.06450062 0.05945962 4.94561e-5 0.05611145 -0.06247746 -4.22317e-5 0.05962896 -0.05544823 5.817e-5 -0.065687 -0.05536061 -2.60146e-5 0.05577623 -0.0118851 9.12887e-4 0.06342047 -0.008665025 0.00189805 -0.05529075 -0.009736537 0.001606881 -0.02121204 -0.07521134 0.03798705 -0.07278752 -0.05442124 1.37827e-7 -0.05570495 -0.05098652 0.03800022 -0.0377168 -0.06678169 0.01426279 -0.07663196 -9.79105e-4 -5.6999e-5 -0.07801187 -0.002134323 0.03806775 -0.05104422 0.05759114 0.03806948 -1.03059e-4 0.07458007 0.03565037 -0.009185433 0.07494693 0 0.03340101 0.06887465 -1.23062e-5 0.02538657 0.07187867 0.03792417 0.06474238 0.0404011 0.03799152 -0.06215387 0.06294173 0.01403456 0.05809897 0.06396257 -1.35733e-6 0.05994528 0.0702002 0.01347219 0.05577099 0.06012505 0.01397252 0.0583589 -0.05580294 0.01397907 0.05966573 -0.06897091 0.01370036 -0.06949573 -0.0608446 0.0133503 0.06259733 0.05666828 0.01392751 -0.0104857 -0.07379782 0.008195579 -0.010697 -0.07389628 0.02995002 0.06734097 -0.03652715 0.01372587 -0.0673772 0.03532308 0.01411509 -0.06054347 0.07150983 0.01368391 -0.0597223 -0.06987589 0.01402097 -0.06528806 -0.01023042 0.001762747 -0.05868178 -0.05666798 0.01409381 0.06978452 -0.06035238 0.0136497 -0.05571466 0.05928832 0.01397514 0.03579664 -0.06707525 0.01427507 0.06700032 0.0369482 0.01403373 0.07150506 0.06053495 0.01358973 -0.07214796 0.05767351 0.01290684 -0.03736364 0.0672118 0.01374268 -0.06709766 -0.03551644 0.01400923 0.0751931 -0.01691037 0.03801536 -0.0611487 -0.0640636 1.1707e-5 -0.05583149 -0.05797457 1.05116e-5 0.06385642 -0.06244421 1.288e-4 -0.06091678 0.05576914 0.01393842 0.02443486 -0.0719729 7.48808e-5 0.06288057 -0.07214194 -2.58919e-4 0.0727573 0.06059098 -2.35761e-6 -0.07216024 0.0611853 6.68064e-7 0.02355116 -0.07567483 0.03751856 0.06899333 0.03440308 -2.55615e-4 -0.02330148 -0.07264429 8.30707e-5 0.05642515 0.07306247 0 -0.05220031 0.0645008 1.26476e-5 0.07014673 -0.03834587 1.91637e-5 -0.06212282 -0.07232093 7.13558e-5 -0.02848851 -0.04802423 0.003923535 -0.02606296 -0.04820096 0.004745662 -0.02712213 -0.04560405 0.004492104</float_array>
          <technique_common>
            <accessor source="#shape0_001-mesh-positions-array" count="90" stride="3">
              <param name="X" type="float"/>
              <param name="Y" type="float"/>
              <param name="Z" type="float"/>
            </accessor>
          </technique_common>
        </source>
        <source id="shape0_001-mesh-normals">
          <float_array id="shape0_001-mesh-normals-array" count="597">-0.2168405 -0.976206 -0.001490771 -0.8529856 0.4344818 -0.2892079 -0.9901292 0.0132718 0.139528 -0.7830676 -0.1171246 0.6108084 0.4168397 0.8897526 0.1859703 0.2024092 0.9660401 0.1606146 -0.06372249 -0.9671292 0.2461717 0.5498893 -0.8329318 -0.06202137 0.4967351 -0.8214717 0.2800686 0.293187 -0.9544603 0.0551989 0.3976994 -0.8964878 -0.195307 -0.8998178 -0.162118 -0.4050255 0.276251 -0.9473843 -0.1617053 -0.1383185 -0.9831583 0.1194477 0.03367084 -0.96473 -0.2610795 0.6723408 -0.738555 -0.04994529 0.001894295 -0.9486966 0.3161825 -0.02601593 -0.9980143 0.05736351 -0.3079192 -0.9513914 0.006357848 0.1261637 -0.9859183 -0.1097633 0.2098803 0.9777261 0.001440405 -0.3308066 -0.9417071 -0.06127816 0.05143547 -0.9941661 0.09480631 -0.9412134 -0.1904924 0.2789801 -0.8708904 0.4846448 0.08166712 -0.7500413 -0.6433694 -0.1533428 -0.1089622 0.6863394 -0.7190728 -0.06073695 0.1759283 -0.9825276 0.9546782 0.2967368 0.02317297 -0.04520338 -0.8140172 0.5790793 -0.04834288 0.7499725 0.6597002 -0.008464694 0.1218575 -0.9925115 -0.6112625 0.7063385 0.3569933 0.3799461 -0.9195437 -0.1004014 0.2048067 0.968182 -0.1437981 0.1692399 0.984617 -0.04344254 0.3454481 0.9204705 -0.182756 0.06563794 0.2810792 0.9574373 0.04192942 0.9818673 -0.1848745 0.6180623 0.7746791 0.1336838 -0.0948432 0.9686317 0.2296901 -0.1027485 0.9931408 -0.05580401 0.3170849 0.9482325 -0.01767396 -0.2866392 0.9531035 -0.09711807 0.1723495 0.978767 0.1109547 0.186791 0.9759148 0.1126924 -0.06576782 0.9971139 -0.03793025 -0.09272825 0.9951639 -0.03241032 0.01480996 0.9925615 0.1208411 0.258251 0.9473555 -0.1892724 0.09088253 0.04234027 -0.9949612 -0.09088253 -0.04234027 0.9949612 -0.8585095 -0.5116366 -0.03448843 -0.6678627 -0.7050345 0.2385076 -0.5713177 -0.8135393 0.1083967 -0.7250066 -0.6820831 -0.0955407 -0.8975825 -0.410078 0.1618084 -0.9583863 -0.2821812 -0.04323774 -0.964806 -0.194078 0.1774355 -0.966057 0.2568953 -0.02718079 -0.9672675 0.1747646 0.1839865 -0.886461 0.4002534 0.2323447 -0.7220363 0.677967 -0.137929 -0.3015043 0.9324248 0.1991961 -0.2325423 0.9701194 0.06922644 -0.2355041 0.9698299 0.06299155 0.1068744 0.9941273 -0.01699697 0.1409795 0.9888231 -0.04851651 0.416045 0.9092051 0.0158981 0.6189256 0.7741155 0.1329532 0.7029575 0.7103141 -0.03612327 0.8982015 -0.4348415 -0.0643981 0.925534 0.1642048 -0.3412091 -0.5254702 -0.7423538 0.4156826 0.9235817 -0.3801991 0.04945325 0.972387 -0.2085608 0.104719 0.4441362 0.8793163 -0.1718894 -0.3707504 -0.9269545 -0.05744254 0.8916894 -0.4472098 0.06995409 0.9737227 0.1009571 -0.204137 -0.2563106 -0.9658577 0.03773558 0.3632832 -0.8937902 -0.2629913 0.8101483 0.4242188 0.4045966 0.03160464 -0.994451 -0.1003417 -0.05075573 -0.9986986 -0.005012094 0.02256286 -0.01891797 0.9995664 0.02872055 -2.50194e-4 0.9995874 0.008540809 0.009157538 0.9999216 -0.01526778 -0.004756152 0.9998722 0.004160761 0.04787719 0.9988446 0.02146637 0.03782165 0.9990539 0.01050996 0.007733464 0.9999149 0.03241825 0.01262205 0.9993947 -0.01640868 0.0138247 0.9997699 -0.1472228 0.06805521 0.9867594 0.01284092 -4.08213e-4 0.9999176 -0.09646326 -0.02997773 0.994885 0.02929681 0.03537636 0.9989445 0.00203073 0.02462136 0.9996948 -0.08542001 0.03559565 0.9957091 -0.007587075 9.79632e-4 0.9999708 -0.01032674 -0.004700422 0.9999357 -0.06080728 -0.02020394 0.997945 0.1042677 -0.9856918 -0.1324387 -0.01975572 -0.9970362 -0.07435464 -0.05522924 -0.9942191 0.09207701 0.2782664 -0.9605026 -0.001644432 0.1038607 -0.9942309 -0.02679586 -0.01204097 -0.984175 -0.1767896 -4.90832e-4 3.26244e-4 0.9999998 0.01028251 -0.01748806 0.9997942 -8.67615e-4 -0.001778841 0.999998 8.74344e-4 -4.24496e-4 0.9999996 0.0443266 0.009337007 0.9989734 -0.08591157 0.0276429 0.9959193 -0.001092672 7.73654e-4 0.9999991 0.6512641 0.722105 0.23328 -0.7109989 0.6209444 0.330013 -0.9757106 0.07799834 -0.2047075 -0.01337224 0.9027301 0.4299995 -0.6391614 0.7513862 0.1639861 -0.7806888 -0.4675605 0.4146228 -0.2917047 0.9446741 0.1499977 -0.9656584 -0.1950278 -0.1716627 -0.4760472 0.8478195 0.2336261 -0.5534001 0.8163166 0.1654556 -0.5395748 -0.735208 -0.4102784 -0.4402701 -0.7684274 -0.4644153 -0.07258188 -0.9760647 0.2050111 -0.001315414 -0.9450258 0.3269935 0.6180436 -0.7238234 0.3067601 0.9344635 -0.1984766 -0.2956097 0.9773254 0.09963738 0.1868355 0.9786225 -0.1852196 0.08939713 0.9766147 -0.1419296 0.1614928 0.6068723 0.7947329 0.01027703 0.6398335 0.7659999 0.06210756 -0.1770329 0.9728659 0.1489675 -0.1159265 0.9649828 0.2353069 0.181709 0.9786797 -0.09574961 0.4617763 0.6308314 -0.6235499 -0.5749571 0.8089931 -0.1222897 -0.7595704 0.6274236 0.1714429 -0.8942587 -0.2121858 -0.3940539 -0.5938204 -0.7765128 -0.210726 0.7199112 -0.6350224 0.280133 0.6930206 -0.7138057 0.1010143 0.9805446 0.1788349 0.08093583 0.5997084 0.7980771 -0.05850535 0.990029 0.01516723 -0.1400447 0.7653718 -0.5987133 0.2361112 -0.9574574 0.08346712 0.2762399 0.07366126 0.5793569 -0.8117386 -0.007833003 -0.9268881 0.3752562 0.1361024 -0.9795364 0.1482717 -0.4092645 -0.9115744 -0.03917533 -0.1464107 -0.9874746 -0.05880564 -0.03519338 -0.995675 -0.08598101 0.05625087 -0.9722436 -0.2271085 0.01395994 -0.9939424 -0.1090112 0.03439867 -0.9953891 -0.08954024 0.0143153 -0.9950795 -0.09804165 0.4729307 -0.8778479 -0.0756278 0.07271629 -0.01227962 -0.9972771 0.1562548 -0.06948906 -0.9852694 0.02189975 0.03773868 -0.9990477 -0.008608818 0.01638752 -0.9998287 2.65469e-4 -0.004357457 -0.9999905 0.009303689 -0.008320748 -0.9999221 -0.005342602 -0.0068053 -0.9999626 0.009239554 0.001851558 -0.9999557 0.004457354 -0.005484223 -0.999975 -0.005836188 0.02124994 -0.9997572 -3.70383e-4 0.0141381 -0.9999 -0.002002954 -0.01201015 -0.9999259 0.001912772 -0.009080946 -0.999957 3.97499e-4 -0.0113452 -0.9999356 -0.006738185 -0.02541083 -0.9996545 -0.05072849 -0.01072502 -0.9986549 0.1878251 0.03724288 -0.9814962 -0.01754069 0.03975427 -0.9990556 0.09257686 0.08378845 -0.9921739 2.87846e-4 0.001994967 -0.999998 0.002021968 -0.008171737 -0.9999646 -0.04803317 -0.008683204 -0.998808 -0.03111499 0.01685607 -0.9993737 0.01243895 0.03293448 -0.9993801 0.006409347 -0.006222307 -0.9999602 -0.007752537 0.01078414 -0.9999119 -0.01341664 0.009767949 -0.9998624 -0.2669264 0.0653007 -0.9615021 -0.004569649 -0.006701171 -0.9999671 -0.004518508 -0.006690382 -0.9999675 0.01705676 0.03288054 -0.9993138 -0.005426943 -0.1994076 -0.9799017 -0.009384632 0.01897633 -0.9997759 -0.009298801 0.01879346 -0.9997802 -0.3032729 -0.008407235 -0.9528668 -0.3233324 -0.03956872 0.9454578</float_array>
          <technique_common>
            <accessor source="#shape0_001-mesh-normals-array" count="199" stride="3">
              <param name="X" type="float"/>
              <param name="Y" type="float"/>
              <param name="Z" type="float"/>
            </accessor>
          </technique_common>
        </source>
        <vertices id="shape0_001-mesh-vertices">
          <input semantic="POSITION" source="#shape0_001-mesh-positions"/>
        </vertices>
        <triangles material="SWMaterial-2_001-material" count="199">
          <input semantic="VERTEX" source="#shape0_001-mesh-vertices" offset="0"/>
          <input semantic="NORMAL" source="#shape0_001-mesh-normals" offset="1"/>
          <p>15 0 0 0 14 0 16 1 5 1 20 1 16 2 20 2 19 2 16 3 19 3 9 3 6 4 16 4 9 4 17 5 1 5 0 5 2 6 4 6 14 6 5 7 2 7 6 7 10 8 5 8 11 8 11 9 5 9 16 9 11 10 16 10 12 10 13 11 14 11 0 11 12 12 16 12 2 12 2 13 16 13 6 13 12 14 2 14 14 14 14 15 4 15 3 15 3 16 5 16 10 16 1 17 17 17 14 17 3 18 1 18 14 18 17 19 18 19 15 19 14 20 17 20 15 20 18 21 3 21 15 21 3 22 10 22 15 22 18 23 1 23 3 23 2 24 5 24 9 24 9 25 5 25 7 25 8 26 7 26 3 26 3 27 7 27 5 27 4 28 8 28 3 28 4 29 2 29 9 29 8 30 15 30 10 30 13 31 12 31 14 31 8 32 0 32 15 32 5 33 6 33 20 33 19 34 11 34 12 34 20 35 11 35 19 35 19 36 12 36 9 36 6 37 11 37 20 37 13 38 9 38 12 38 7 39 6 39 9 39 4 40 9 40 13 40 10 41 11 41 6 41 10 42 6 42 7 42 18 43 4 43 1 43 1 44 4 44 13 44 0 45 1 45 13 45 8 46 4 46 18 46 8 47 18 47 17 47 8 48 10 48 7 48 8 49 17 49 0 49 21 50 23 50 22 50 21 51 22 51 23 51 53 52 36 52 86 52 60 53 53 53 86 53 38 54 35 54 37 54 70 55 38 55 37 55 70 56 37 56 40 56 39 57 70 57 40 57 39 58 31 58 70 58 58 59 39 59 40 59 25 60 39 60 58 60 58 61 40 61 41 61 69 62 58 62 41 62 42 63 69 63 41 63 43 64 69 64 42 64 43 65 84 65 69 65 43 66 42 66 45 66 44 67 43 67 45 67 24 68 44 68 45 68 24 69 45 69 46 69 66 70 24 70 46 70 25 71 26 71 47 71 25 72 47 72 75 72 48 73 28 73 49 73 48 74 49 74 50 74 27 75 48 75 50 75 27 76 50 76 54 76 30 77 63 77 51 77 29 78 30 78 51 78 29 79 51 79 52 79 31 80 73 80 62 80 31 81 62 81 53 81 72 82 31 82 53 82 55 83 9 83 80 83 55 84 80 84 56 84 65 85 52 85 51 85 57 86 51 86 63 86 57 87 65 87 51 87 24 88 66 88 50 88 49 89 24 89 50 89 49 90 54 90 67 90 50 91 66 91 54 91 54 92 66 92 67 92 64 93 75 93 58 93 59 94 68 94 47 94 64 95 58 95 69 95 47 96 68 96 75 96 47 97 64 97 59 97 59 98 64 98 69 98 68 99 58 99 75 99 70 100 62 100 38 100 62 101 60 101 38 101 70 102 53 102 62 102 9 103 20 103 80 103 0 104 55 104 18 104 0 105 18 105 56 105 18 106 55 106 56 106 35 107 0 107 56 107 80 108 35 108 56 108 71 109 46 109 35 109 80 110 71 110 35 110 40 111 37 111 35 111 41 112 40 112 35 112 42 113 41 113 35 113 45 114 42 114 35 114 46 115 45 115 35 115 72 116 53 116 60 116 73 117 72 117 60 117 73 118 60 118 62 118 74 119 29 119 52 119 74 120 52 120 63 120 30 121 74 121 63 121 28 122 27 122 54 122 28 123 54 123 49 123 84 124 25 124 75 124 84 125 75 125 64 125 26 126 84 126 64 126 26 127 64 127 47 127 77 128 52 128 65 128 76 129 77 129 65 129 63 130 52 130 77 130 63 131 77 131 85 131 85 132 57 132 63 132 78 133 67 133 66 133 81 134 78 134 66 134 49 135 78 135 83 135 49 136 67 136 78 136 83 137 44 137 24 137 83 138 24 138 49 138 26 139 59 139 69 139 84 140 26 140 69 140 59 141 26 141 79 141 68 142 59 142 79 142 25 143 58 143 68 143 79 144 25 144 68 144 57 145 71 145 80 145 65 146 57 146 80 146 81 147 46 147 71 147 81 148 66 148 46 148 85 149 81 149 71 149 57 150 85 150 71 150 36 151 53 151 70 151 31 152 36 152 70 152 86 153 82 153 38 153 86 154 38 154 60 154 35 155 38 155 82 155 82 156 0 156 35 156 0 157 82 157 55 157 9 158 55 158 82 158 76 159 9 159 82 159 20 160 9 160 76 160 80 161 20 161 76 161 76 162 65 162 80 162 39 163 25 163 34 163 81 164 33 164 32 164 29 165 74 165 77 165 76 166 29 166 77 166 73 167 82 167 86 167 72 168 73 168 86 168 83 169 78 169 28 169 48 170 83 170 28 170 25 171 84 171 32 171 82 172 34 172 32 172 76 173 82 173 32 173 43 174 44 174 32 174 84 175 43 175 32 175 44 176 27 176 32 176 34 177 25 177 32 177 27 178 81 178 32 178 39 179 61 179 31 179 61 180 34 180 31 180 32 181 33 181 85 181 79 182 26 182 25 182 44 183 83 183 27 183 83 184 48 184 27 184 32 185 85 185 30 185 31 186 34 186 73 186 30 187 85 187 74 187 28 188 78 188 81 188 27 189 28 189 81 189 74 190 85 190 77 190 36 191 31 191 86 191 31 192 72 192 86 192 73 193 34 193 82 193 61 194 39 194 34 194 30 195 29 195 76 195 32 196 30 196 76 196 81 197 85 197 33 197 89 198 87 198 88 198</p>
        </triangles>
      </mesh>
    </geometry>
  </library_geometries>
  <library_visual_scenes>
    <visual_scene id="Scene" name="Scene">
      <node id="node-shape0-name" name="node-shape0-name" type="NODE">
        <matrix sid="transform">1 0 0 0 0 1 0 0 0 0 1 0 0 0 0 1</matrix>
        <instance_geometry url="#shape0_001-mesh" name="node-shape0-name">
          <bind_material>
            <technique_common>
              <instance_material symbol="SWMaterial-2_001-material" target="#SWMaterial-2_001-material"/>
              <instance_material symbol="SWMaterial-0_001-material" target="#SWMaterial-0_001-material"/>
              <instance_material symbol="SWMaterial-1_001-material" target="#SWMaterial-1_001-material"/>
            </technique_common>
          </bind_material>
        </instance_geometry>
      </node>
      <node id="Light" name="Light" type="NODE">
        <matrix sid="transform">-0.2908646 -0.7711008 0.5663932 4.076245 0.9551712 -0.1998834 0.2183912 1.005454 -0.05518906 0.6045247 0.7946723 5.903862 0 0 0 1</matrix>
        <instance_light url="#Light-light"/>
      </node>
    </visual_scene>
  </library_visual_scenes>
  <scene>
    <instance_visual_scene url="#Scene"/>
  </scene>
</COLLADA>