<?xml version="1.0" encoding="utf-8"?>
<COLLADA xmlns="http://www.collada.org/2005/11/COLLADASchema" version="1.4.1" xmlns:xsi="http://www.w3.org/2001/XMLSchema-instance">
  <asset>
    <contributor>
      <author>Blender User</author>
      <authoring_tool>Blender 3.0.1</authoring_tool>
    </contributor>
    <created>2026-06-09T13:23:36</created>
    <modified>2026-06-09T13:23:36</modified>
    <unit name="meter" meter="1"/>
    <up_axis>Z_UP</up_axis>
  </asset>
  <library_lights>
    <light id="Light-light" name="Light">
      <technique_common>
        <point>
          <color sid="color">1000 1000 1000</color>
          <constant_attenuation>1</constant_attenuation>
          <linear_attenuation>0</linear_attenuation>
          <quadratic_attenuation>0.00111109</quadratic_attenuation>
        </point>
      </technique_common>
      <extra>
        <technique profile="blender">
          <type sid="type" type="int">0</type>
          <flag sid="flag" type="int">0</flag>
          <mode sid="mode" type="int">1</mode>
          <gamma sid="blender_gamma" type="float">1</gamma>
          <red sid="red" type="float">1</red>
          <green sid="green" type="float">1</green>
          <blue sid="blue" type="float">1</blue>
          <shadow_r sid="blender_shadow_r" type="float">0</shadow_r>
          <shadow_g sid="blender_shadow_g" type="float">0</shadow_g>
          <shadow_b sid="blender_shadow_b" type="float">0</shadow_b>
          <energy sid="blender_energy" type="float">1000</energy>
          <dist sid="blender_dist" type="float">29.99998</dist>
          <spotsize sid="spotsize" type="float">75</spotsize>
          <spotblend sid="spotblend" type="float">0.15</spotblend>
          <att1 sid="att1" type="float">0</att1>
          <att2 sid="att2" type="float">1</att2>
          <falloff_type sid="falloff_type" type="int">2</falloff_type>
          <clipsta sid="clipsta" type="float">0.04999995</clipsta>
          <clipend sid="clipend" type="float">30.002</clipend>
          <bias sid="bias" type="float">1</bias>
          <soft sid="soft" type="float">3</soft>
          <bufsize sid="bufsize" type="int">2880</bufsize>
          <samp sid="samp" type="int">3</samp>
          <buffers sid="buffers" type="int">1</buffers>
          <area_shape sid="area_shape" type="int">1</area_shape>
          <area_size sid="area_size" type="float">0.1</area_size>
          <area_sizey sid="area_sizey" type="float">0.1</area_sizey>
          <area_sizez sid="area_sizez" type="float">1</area_sizez>
        </technique>
      </extra>
    </light>
  </library_lights>
  <library_effects>
    <effect id="SWMaterial-2_003-effect">
      <profile_COMMON>
        <technique sid="common">
          <lambert>
            <emission>
              <color sid="emission">0 0 0 1</color>
            </emission>
            <diffuse>
              <color sid="diffuse">0.4643137 0.4643137 0.4643137 1</color>
            </diffuse>
            <index_of_refraction>
              <float sid="ior">1</float>
            </index_of_refraction>
          </lambert>
        </technique>
      </profile_COMMON>
    </effect>
    <effect id="SWMaterial-0_003-effect">
      <profile_COMMON>
        <technique sid="common">
          <lambert>
            <emission>
              <color sid="emission">0 0 0 1</color>
            </emission>
            <diffuse>
              <color sid="diffuse">0.2227451 0.2227451 0.2227451 1</color>
            </diffuse>
            <index_of_refraction>
              <float sid="ior">1</float>
            </index_of_refraction>
          </lambert>
        </technique>
      </profile_COMMON>
    </effect>
    <effect id="SWMaterial-1_003-effect">
      <profile_COMMON>
        <technique sid="common">
          <lambert>
            <emission>
              <color sid="emission">0 0 0 1</color>
            </emission>
            <diffuse>
              <color sid="diffuse">0.3921569 0.5427451 0.64 1</color>
            </diffuse>
            <index_of_refraction>
              <float sid="ior">1</float>
            </index_of_refraction>
          </lambert>
        </technique>
      </profile_COMMON>
    </effect>
    <effect id="SWMaterial-3_001-effect">
      <profile_COMMON>
        <technique sid="common">
          <lambert>
            <emission>
              <color sid="emission">0 0 0 1</color>
            </emission>
            <diffuse>
              <color sid="diffuse">0.6563138 0.6563138 0.6563138 1</color>
            </diffuse>
            <index_of_refraction>
              <float sid="ior">1</float>
            </index_of_refraction>
          </lambert>
        </technique>
      </profile_COMMON>
    </effect>
    <effect id="SWMaterial-4_001-effect">
      <profile_COMMON>
        <technique sid="common">
          <lambert>
            <emission>
              <color sid="emission">0 0 0 1</color>
            </emission>
            <diffuse>
              <color sid="diffuse">0.08031373 0.08031373 0.08031373 1</color>
            </diffuse>
            <index_of_refraction>
              <float sid="ior">1</float>
            </index_of_refraction>
          </lambert>
        </technique>
      </profile_COMMON>
    </effect>
  </library_effects>
  <library_images/>
  <library_materials>
    <material id="SWMaterial-2_003-material" name="SWMaterial-2_003">
      <instance_effect url="#SWMaterial-2_003-effect"/>
    </material>
    <material id="SWMaterial-0_003-material" name="SWMaterial-0_003">
      <instance_effect url="#SWMaterial-0_003-effect"/>
    </material>
    <material id="SWMaterial-1_003-material" name="SWMaterial-1_003">
      <instance_effect url="#SWMaterial-1_003-effect"/>
    </material>
    <material id="SWMaterial-3_001-material" name="SWMaterial-3_001">
      <instance_effect url="#SWMaterial-3_001-effect"/>
    </material>
    <material id="SWMaterial-4_001-material" name="SWMaterial-4_001">
      <instance_effect url="#SWMaterial-4_001-effect"/>
    </material>
  </library_materials>
  <library_geometries>
    <geometry id="shape0_003-mesh" name="shape0.003">
      <mesh>
        <source id="shape0_003-mesh-positions">
          <float_array id="shape0_003-mesh-positions-array" count="1752">0.0365746 0.08559077 0.01799988 0.03785973 0.08530294 -0.0165314 0.02919113 0.08535873 0.0301811 0.004500806 0.08506476 -0.040192 0.03656101 0.08545708 -0.01874476 0.02332407 0.08558732 -0.03351724 0.02346616 0.08521252 -0.0331124 0.0420323 0.08620929 -4.92734e-5 0.01461881 0.08496981 0.03672295 0.04004961 0.08499419 0.01052212 0.03822928 0.08540421 0.01550781 0.006403148 0.06159073 0.04579573 0.0466082 0.07859539 -0.003080487 0.03927874 0.06159073 -0.021232 0.007547736 0.0691502 0.04525727 0.03146564 0.06159073 -0.03135925 0.04029017 0.07852482 -0.01933622 0.02062392 0.06159073 0.04114437 0.0253393 0.06160074 -0.03888434 0.02642554 0.07854986 -0.03605473 0.006822288 0.06159073 -0.04374462 0.03247886 0.0786283 0.03261041 0.03420877 0.06159073 0.03085261 0.04179215 0.07859933 0.01837837 0.04406648 0.06159073 0.01193827 0.045188 0.07847845 -5.23929e-4 0.002152204 0.06707274 -0.04396003 0.04449182 0.06159073 -0.007255792 -0.04355561 0.0786333 -0.01158928 -0.03100937 0.08586978 -0.02680981 -0.03169059 0.07850575 -0.03190737 -0.01704424 0.08538913 0.0385645 -0.01320195 0.08531308 -0.03848075 -0.01194709 0.08516949 -0.0383743 -0.008817434 0.07857501 -0.04353135 4.74506e-5 0.07858937 -0.04470533 -0.01619917 0.08323866 0.04090785 -0.02841114 0.08526545 0.03125929 -0.02030533 0.07859271 0.04356747 -0.03868281 0.08539557 0.01607048 -0.04427969 0.07847899 0.0120241 -0.0415793 0.08546924 -3.79097e-4 -0.02015751 0.07902878 0.0369175 0.01837033 0.07865273 0.04172688 -0.002942264 0.06256556 -0.04050487 0.003629982 0.08122074 0.03600001 -6.0157e-4 0.08302265 0.0346561 0.02748554 0.090837 -0.01475447 0.01107525 0.09076994 0.03061193 -0.007347464 0.09068417 -0.02966797 0.03140944 0.09090512 -8.16735e-4 0.03155052 0.08559077 0.004678189 0.02931368 0.08559077 -0.01164102 0.01205676 0.09032911 -0.02794653 0.005140185 0.09209066 0.03126507 0.03448367 0.09109079 -0.001012802 0.02926188 0.09202563 -0.009389102 0.03060072 0.09209078 0.001899182 0.02963697 0.09085309 0.01179832 0.004025816 0.09208607 -0.01574897 -0.002051949 0.09108489 -0.01538187 0.003520846 0.09208762 0.01764839 -0.01624321 0.09212177 -0.01888436 0.001399993 0.0919466 0.02761995 -0.002867162 0.08589076 0.02717977 -0.002976298 0.08559077 -0.01483869 -0.01582908 0.08559077 -0.001282632 -0.01647835 0.0908122 0.001125454 -0.01357573 0.09252703 0.006288707 -0.006872057 0.08559077 0.01545274 -0.01945239 0.09171628 0.01706027 -0.02003395 0.09208875 0.01777976 -0.01726502 0.09200417 0.01798033 -0.01819914 0.09203702 0.01694619 0.01536953 0.09212642 0.01723289 0.01697456 0.08444726 0.01664555 0.01864475 0.08465528 0.0194267 0.01594293 0.09206157 0.01931333 0.01702815 0.08810096 -0.0157507 0.01505196 0.09185212 -0.01629662 -0.01715868 0.09155523 -0.01429539 -0.01875412 0.08352702 0.02145695 -0.0180363 0.08361387 0.01802921 0.01671493 0.08681446 0.01981198 0.01982474 0.08443892 0.01953434 0.01865804 0.08382368 0.01789039 0.01896929 0.08464533 0.02058362 0.01765549 0.08315974 -0.01671004 0.01565921 0.08442157 -0.01633822 0.01699572 0.08471858 -0.01595973 -0.01862764 0.08677029 -0.01770132 -0.01969319 0.08442896 -0.0163145 -0.01824653 0.08464825 -0.0173611 -0.01641386 0.08561038 -0.01507943 -0.01682943 0.0846557 -0.0177024 -0.01764255 0.08315777 -0.01664996 0.01866132 0.08480954 -0.01459074 0.01996862 0.08474183 -0.01607906 0.01842892 0.08466589 0.01639103 0.01788353 0.08315777 0.01840978 -0.01770848 0.08428078 0.01613998 -0.01865917 0.08455634 0.01652288 -0.02014768 0.08435177 0.01927977 -0.01193362 0.08559077 -0.009500503 0.01354694 0.08559077 0.009296357 0.01596564 0.08559119 0.004941821 9.00902e-4 0.08616578 0.02864503 -9.35004e-4 0.08602726 0.02750331 -0.003236353 0.08589076 0.02620148 -0.0157352 0.08462619 -0.01521903 -0.01844209 0.08866673 -0.01730763 0.01692622 0.08461493 -0.0167216 0.01821243 0.09168183 0.02099978 -0.02020668 0.08454781 0.01769846 -0.01563411 0.08441722 0.01729494 -0.01691263 0.08452486 0.01640033 7.98778e-5 0.09145075 0.01686775 0.005294322 0.08559077 0.0163722 -1.69168e-5 0.08559167 0.01839864 0.01196581 0.09329146 0.009322941 0.01576793 0.09110611 -8.71813e-4 0.009123921 0.08559459 -0.01311749 0.01181942 0.09105849 -0.009990274 -7.3118e-4 0.08590644 0.02639436 0.001973748 0.08604282 0.02389651 0.002173781 0.09209072 0.02381992 -0.001000761 0.09209102 0.02297568 -0.01616555 0.09209805 -0.01443195 0.01863443 0.09209078 -0.01424998 0.01998269 0.09172856 -0.0165919 0.01948833 0.0921216 -0.01867151 0.01487523 0.09187728 0.01827841 0.01947414 0.09201103 0.01739436 0.01876533 0.09209078 0.01630002 -0.01566243 0.09211677 0.01695185 0.01605784 0.0928598 -3.6513e-4 0.01441162 0.09209156 -0.007814705 0.008514046 0.09273904 -0.01235419 0.0274887 0.09210044 0.01451784 0.01684784 0.09209078 0.002604365 -0.009198009 0.09208893 -0.01318341 -0.00365889 0.09234547 -0.02987039 -0.02050405 0.09191322 0.01803642 -0.0222066 0.09195983 0.02230513 0.01568168 0.09209275 -0.01485866 0.01665478 0.0918312 -0.01747936 -0.008502244 0.09202075 0.03045386 -0.001879394 0.09209072 0.02846992 -0.003108084 0.09209072 0.0257098 0.001203954 0.09209072 0.02890992 0.01138144 0.09209078 -0.02742737 -0.01662248 0.09209078 0.01627987 -0.009059846 0.0920965 0.01535475 0.02890211 0.09209078 -0.009029686 0.0154953 0.09230703 -0.02612966 0.003123998 0.09209054 0.02508884 -0.01332747 0.09294927 0.006996989 -0.01493275 0.09286856 -0.005249142 -0.01691687 0.09202808 -0.01811051 -0.02890211 0.09209078 -0.009029686 0.01881027 0.09206748 0.02529019 0.001612782 0.09280967 0.01716417 -0.02919942 0.09188216 -0.009078383 0.01620179 0.09185278 0.02183067 -0.01954013 0.09173178 -0.01804441 -0.01856261 0.09204167 -0.02341562 0.0233038 0.09205412 0.02095651 -0.02053529 0.09123885 -0.02327245 0.005146801 0.09109079 -0.03182661 -0.01972687 0.09209072 0.02446997 -0.02392965 0.09109073 0.02275568 -0.02633768 0.09070932 0.01809692 -0.02737331 0.09211289 0.01479899 -0.03060072 0.09209078 0.001899182 -0.03147101 0.09067773 0.00290811 0.002028286 0.07290101 0.03547829 -0.005146801 0.08559077 -0.03182667 -0.01034259 0.08985114 0.03028976 -0.01896929 0.08559077 -0.0244804 -0.0283792 0.09115552 -0.01341688 -0.02931368 0.08559077 -0.01164102 -0.03155052 0.08559077 0.004678189 -0.02741348 0.08559077 0.01680117 0.004173457 0.0782991 0.03581601 -0.004939377 0.07808941 0.0355345 -0.01897025 0.08559077 0.0264796 -0.005511164 0.08559077 0.03228342 -0.00711894 0.08559077 0.03382462 0.01897025 0.08559077 0.0264796 0.02741348 0.08559077 0.01680117 0.007272779 0.08559077 -0.02979427 0.03145104 0.08559077 -0.01257133 0.01896929 0.08559077 -0.0244804 -0.03481799 0.08538174 -0.02079987 -0.02913695 0.08558911 0.03060537 -0.03905117 0.08618533 0.01553618 -0.03508156 0.08508777 -0.02163314 -0.04122489 0.08547627 -0.005125582 -0.01625317 0.08534276 -0.03674983 -0.007547795 0.08565574 -0.03944987 -0.03711843 0.08515667 -0.0167638 0.0160458 0.08542728 0.03917288 -0.003283679 0.07369655 0.03553295 0.001465141 0.07249426 0.03600001 0.01413404 0.08395028 0.03436923 -0.01386642 0.08451211 0.03734654 -0.01265895 0.08552271 0.03811091 -0.01620388 0.08488667 0.03871881 0.001767814 0.0641458 -0.0424 0.01812922 0.07048535 0.04174095 0.01352655 0.08458763 0.03719848 -0.001728415 0.08239942 0.03565919 -0.003730118 0.07410275 0.03600001 -6.4705e-4 0.07267576 0.03600001 -0.01455289 0.08459573 0.03697997 -0.01898157 0.07050657 0.03773629 -0.01383745 0.07059079 0.0362544 -0.01923429 0.06922477 0.04063928 -0.009840905 0.06864106 0.04364913 0.01382303 0.07059079 0.03621989 0.01810961 0.07040166 0.04195964 0.01362466 0.07058936 0.03719639 -0.001341283 0.06730777 -0.04397994 0.002062797 0.06311982 -0.04340147 0.01861131 0.06981217 0.04180675 0 0.06958913 0.04712682 0.03843277 0.08529001 0.01528686 0.03593575 0.08552491 0.02126652 0.03501945 0.08550459 0.02255803 0.02564001 0.08486306 0.03352022 0.003136634 0.08645361 -0.04080528 0.008790016 0.07857376 -0.04325008 0.02801424 0.07859307 -0.03524029 -0.02987366 0.07859152 -0.03406065 -0.03927874 0.06159073 -0.021232 -0.04449182 0.06159073 -0.007255792 -0.04530018 0.06159073 0.009325385 -0.002807319 0.06253004 -0.04362308 -0.03420877 0.06159073 0.03085261 -0.008837401 0.06159073 -0.04327064 -0.02860927 0.06159168 0.03677874 -0.01907008 0.06999379 0.04146647 -0.02110248 0.06159073 -0.03889822 -0.03122097 0.06160324 -0.03581809 0.02110248 0.06159073 -0.03889822 -0.03146564 0.06159073 -0.03135925 -0.04406648 0.06159073 0.01193827 -0.02062392 0.06159073 0.04114437 0.001083314 0.06536084 -0.04317152 0.001310646 0.06442779 -0.04269313 -0.002274513 0.06211078 -0.04406994 -0.001498878 0.06365537 -0.04379081 -0.001529335 0.06484645 -0.04379236 -5.31182e-4 0.06609874 -0.04230988 0.001565158 0.06381076 -0.03809994 -9.26485e-4 0.06522202 -0.03868401 -7.88217e-4 0.08077806 0.03660267 0.002544939 0.08030062 0.03551423 0.003050446 0.075073 0.03482842 -0.003038287 0.07838976 0.04199987 -0.001908183 0.08034676 0.037 0.001868963 0.08047699 0.02720004 0.005536615 0.07355314 0.03140705 -0.001096904 0.07516378 0.03299999 -0.001239955 0.07507276 0.02720004 -0.001412332 0.0777474 0.03549635 0.00251013 0.08013355 0.02754837 -9.71891e-4 0.08039844 0.0275464 -5.50012e-4 0.08410286 0.03189164 -0.002514123 0.07874411 0.03739655 3.19636e-4 0.07525426 0.03731817 -0.003463566 0.07698488 0.03715825 0.002933502 0.07701975 0.03299999 0.00313878 0.07402688 0.03461873 0.004122674 0.08031404 0.03365457 4.16856e-4 0.08186352 0.03478163 0.002924203 0.07861816 0.03520238 -0.004028916 0.0770536 0.03509801 0.002391457 0.07659226 0.03726547 2.14616e-4 0.07493525 0.04186064 -0.002687692 0.07504606 0.03549933 -8.33015e-6 0.07524853 0.03716647 -0.001040577 0.08084827 0.0350992 0.002693891 0.0803318 0.04199987 -0.003978669 0.07684844 0.04199987 0.002479255 0.07996511 0.04168045 0.002848148 0.07661175 0.04199987 -0.001744508 0.07734268 0.04165965 -0.001984655 0.07969737 0.04161953 0.001662611 0.07526153 0.04160827 1.82493e-4 0.07499277 0.04199987 7.69255e-4 0.07967519 0.04177349 -0.002072095 0.07849764 0.04173558 7.70772e-4 0.07831645 0.03608715 1.23494e-4 0.08071249 0.03689473 0.001530468 0.07900786 0.03730744 -0.002212762 0.07948446 0.03631544 9.00178e-4 0.07784998 0.03612661 0.002774 0.07775264 0.0416947 4.85297e-4 0.0753321 0.03634399 0.02861511 0.06159168 0.03677481 3.96329e-4 0.06475353 -0.0486356 3.32397e-4 0.05633771 -0.04248988 9.59037e-4 0.06318277 -0.04377985 -0.01697796 0.08497655 -0.03642505 0.04682159 0.06159079 0.003546833 0.001912355 0.07277077 0.03502976 0.001326501 0.073448 0.03580963 -3.81227e-4 0.07277655 0.03572416 -0.00314635 0.07349073 0.03519994 -0.003506004 0.07390499 0.03564816 -0.00314635 0.07349073 0.03519994 0.0185815 0.09193605 0.0208922 0.01950883 0.09196466 0.01951813 0.01757138 0.0846641 0.0200237 0.01890099 0.08900356 0.0183714 -0.01749098 0.08560681 -0.005751192 0.01716792 0.09108299 -0.003353834 0.01412957 0.08557122 0.03535431 -0.01244103 0.08559077 0.03499984 -0.01306772 0.08485174 0.03578782 5.20082e-4 0.07877677 0.04184609 -0.002093374 0.07606029 0.03699713 -0.03448367 0.08559077 -0.001012802 -0.003571033 0.09209078 -0.02962911 -0.02092009 0.09203338 -0.02188789 -0.009463846 0.09153097 -0.01202905 -0.01998972 0.06959074 0.04131978 0.004608809 0.0841813 0.02715468 2.53107e-5 0.07901495 0.03506767 -0.01575189 0.09200859 0.01728636 -0.01675766 0.09184855 0.02069771 -0.01662248 0.09209078 0.01627987 0 0.06159216 0.0468207 0.03843963 0.08519423 -0.01362884 0.03973251 0.08545875 -0.009239971 -0.001179099 0.08064776 0.03299999 -0.00293827 0.08170461 0.03467327 -0.001179099 0.08064776 0.03299999 -0.01765066 0.08878952 -0.01489603 -0.01764255 0.08315777 -0.01664996 -0.01764255 0.08315777 -0.01664996 -0.01764255 0.08315777 -0.01664996 -0.01887291 0.08459585 -0.01706051 0.01548427 0.09208774 -0.01534992 0.01784801 0.0920729 -0.01751524 0.01548886 0.09175288 -0.01747012 0.01640278 0.09209078 -0.01889985 0.01788085 0.09202694 -0.01615703 -3.3762e-4 0.07381081 0.03748208 -0.001908183 0.08034676 0.037 -0.002668917 0.08021998 0.04199987 -4.2113e-4 0.08585828 0.02547323 0.003110885 0.08589076 0.02536928 -0.002512693 0.09181493 0.02637064 -0.002911508 0.0916993 0.0245518 -0.01923269 0.07856976 0.04172986 -0.01923269 0.07856976 0.04172986 -0.01760929 0.0701552 0.04148274 -0.004746496 0.08171433 0.03142243 -0.003005266 0.07885354 0.02720004 0.001764953 0.07818669 0.02736741 0.01287263 0.09203636 0.009808123 0.01280397 0.09209078 0.01219993 0.007118999 0.09109067 0.03382462 0.00283885 0.07502275 0.03600001 0.002529501 0.07521915 0.03577584 -5.86793e-4 0.07918155 0.04191988 6.14819e-4 0.07377636 0.04199987 0.003202974 0.07937425 0.0373907 -0.002353847 0.07585465 0.037 -9.70531e-4 0.07502675 0.037 0.01852363 0.08443522 -0.01487964 0.01671254 0.08443832 -0.01492166 0.01759475 0.08465075 -0.01412987 0.01903879 0.08479213 -0.01843535 0.01669591 0.08888208 -0.01622867 0.01975595 0.08461278 -0.01508003 0.005196332 0.09201055 0.03118526 0.003629982 0.08122074 0.03600001 0.003629982 0.08122074 0.03600001 0.003691256 0.08081305 0.0357185 0.005006968 0.07816344 0.03540909 0.005285799 0.07854175 0.03501999 -0.01612985 0.0829823 0.04034101 -2.88912e-4 0.09173953 0.01680248 -0.006556391 0.09314113 0.01370251 0.002152204 0.06707274 -0.04396003 0.002152204 0.06707274 -0.04396003 0.002348065 0.06228458 -0.04348856 0.002102077 0.06390064 -0.04304605 0.01768875 0.09197425 -0.01428759 -0.0156216 0.09208774 -0.01509994 -0.01794338 0.09201681 -0.01801514 -0.01991099 0.091946 -0.01669883 -0.002983212 0.07873266 0.034312 -0.002942681 0.07706731 0.03429818 -0.002534568 0.07916492 0.03692793 3.22552e-4 0.07741069 0.03622239 -0.002193689 0.08046275 0.03565979 0.02014267 0.08435678 0.01801002 0.01868432 0.08373028 0.01860666 0.01963174 0.08441781 0.01735746 0.01650583 0.08444285 0.01795321 0.01893585 0.08456599 0.01665669 0.01767766 0.08458578 0.01613998 0.01908475 0.08581292 -0.01804286 0.01902681 0.08574402 -0.01813769 0.01765549 0.08315974 -0.01671004 0.01765549 0.08315974 -0.01671004 0.01765549 0.08315974 -0.01671004 6.17975e-4 0.08164495 0.03626185 1.86626e-4 0.07761788 0.03602105 0.001905441 0.08140373 0.03600001 -0.01651334 0.09208923 -0.002963304 0.01336133 0.08559077 -0.007623672 0.01136624 0.08607763 -0.03919124 0.01580446 0.08551877 0.03884989 0.01580446 0.08551877 0.03884989 0.016025 0.08530652 0.03741759 0.01403558 0.08475947 0.03640145 0.001510322 0.06528377 -0.04245001 0.001993834 0.06876385 -0.04273051 -5.59418e-4 0.06634777 -0.03809994 -6.13291e-4 0.06474745 -0.03830915 0.01731294 0.07064586 0.04128229 0.01458168 0.07059079 0.0370199 -0.00177747 0.06415134 -0.04656952 -0.001855432 0.0653854 -0.04297626 0.01343822 0.08458608 0.03606986 0.01356226 0.07059061 0.03608739 0.01788353 0.08315777 0.01840978 -0.02003395 0.09208875 0.01777976 -0.02007859 0.09198087 0.01870977 -0.01907056 0.0917645 0.01679569 -0.02038466 0.09208548 0.0185222 -0.01772898 0.08460563 0.02003914 -0.01715362 0.08404189 0.01592612 -7.85629e-4 0.09285867 -0.01516777 0.01445102 0.08559077 0.03570008 3.84997e-4 0.07825994 0.03595751 0.004286408 0.07810121 0.03485852 -6.91309e-4 0.07694548 0.03610289 -0.002308726 0.07551473 0.03548985 -0.001214146 0.07509523 0.03516221 -0.004940211 0.07591784 0.03600001 6.84883e-4 0.08278578 0.03519994 2.72065e-4 0.08265256 0.03546684 6.84883e-4 0.08278578 0.03519994 9.41612e-4 0.05809819 -0.03755301 0.001565158 0.06381076 -0.03809994 0.001565158 0.06381076 -0.03809994 -0.01619857 0.08442729 0.0203793 -0.01745581 0.08351874 0.01928424 -0.01782518 0.08449453 0.01660197 -0.01681703 0.08438843 0.01746279 -0.01674908 0.08549398 0.03873437 -0.002193391 0.06682974 -0.04406005 -0.001432418 0.06461614 -0.04983812 -0.002193391 0.06682974 -0.04406005 -0.001107275 0.06621491 -0.04268306 -0.001583278 0.08267378 0.03600001 -0.003711998 0.08296084 0.03610354 0.03510087 0.07859396 0.03009366 0.01594442 0.08440214 -0.01795941 0.01655679 0.08452779 -0.01748192 0.0175175 0.08456778 -0.01660734 -0.002999901 0.07856315 0.03450763 -5.03806e-4 0.07398778 0.03600001 -3.36029e-4 0.07431375 0.03578984 -7.23016e-5 0.09106719 0.01884579 6.79565e-4 0.08186674 0.04199987 6.79565e-4 0.08186674 0.04199987 -0.001851737 0.07612705 0.04162889 -6.4705e-4 0.07267576 0.03600001 -0.01521277 0.08435678 0.01801002 -0.01586264 0.08202743 0.01714837 -0.01521277 0.08435678 0.01801002 -0.01410764 0.08559077 0.008484721 0.02936041 0.09179776 0.008702754 -0.004868626 0.07034254 0.04487735 0.009661078 0.07074391 0.04404568 0.003408014 0.07669597 0.04199987 -0.00518018 0.07808375 0.03502976 -0.00518018 0.07808375 0.03502976 -0.006238043 0.07909804 0.03608119 0.001530289 0.07578057 0.0415942 0.002848148 0.07661175 0.04199987 -8.69775e-4 0.07531386 0.04178053 -9.94908e-4 0.07496809 0.04199987 0.004747331 0.07696574 0.03600001 -0.03097212 0.07853126 0.03404146 0.01596784 0.08559077 8.65333e-4 0.0176109 0.0921033 0.02118349 0.01920866 0.09208375 0.02078992 0.01920866 0.09208375 0.02078992 0.01718771 0.09173595 0.02098912 0.01950883 0.09156906 -0.01531499 0.0163353 0.09160453 -0.01583826 0.02024215 0.09153479 -0.01623994 -0.01455289 0.08459573 0.03697997 0.007368266 0.08559077 -0.01309722 -0.01701837 0.09203583 -0.0175113 0.002812206 0.07649862 0.037 0.02392971 0.08559077 0.02275562 -0.02059102 0.08047515 0.0209043 0.0170384 0.08434462 0.02055746 0.01584762 0.08456689 0.0193665 0.01625657 0.08455175 0.02238398 0.01863443 0.09209078 -0.01424998 0.01863443 0.09209078 -0.01424998 -0.01698732 0.08448517 -0.01458579 0.01990288 0.09209996 0.01711571 0.01736044 0.09202766 -0.01572829 0.0365746 0.08559077 0.01799988 0.0376361 0.0857743 0.01677465 0.0411902 0.08463686 0.005470633 0.04122203 0.08452892 0.005480051 0.001688957 0.07552874 0.037 -0.003281354 0.07736361 0.02760553 0.002406477 0.07603174 0.02720004 -4.77521e-4 0.08283311 0.0279029 0.001917898 0.08602839 0.02692186 -0.002843737 0.08609616 0.02598053 -0.002955853 0.09209078 0.02736151 -0.002516448 0.09176284 0.02708786 -5.5289e-4 0.07547438 0.0354743 0.01800096 0.08447575 0.02126991 0.01800096 0.08447575 0.02126991 0.01800096 0.08447575 0.02126991 -0.0163424 0.08466607 -0.01630437 -0.01941412 0.0844531 -0.01795065 -0.01591145 0.08470755 -0.01753902 -0.02020913 0.09206241 -0.01573097 -0.01553088 0.0919429 -0.01693665 -0.01666694 0.09187543 -0.01573252 0.01507472 0.08460658 -0.01620823 -0.01720857 0.08478337 -0.01896464 -0.01861077 0.08443486 -0.01490664 -0.01709467 0.09207302 0.02133965 0.007273554 0.08559077 0.03179413 0.001767814 0.0641458 -0.0424 -0.01558065 0.09209078 0.006749927 -0.01492929 0.07059025 0.03658109 -0.01458168 0.07059079 0.0370199 0.02309107 0.09116166 0.02249825 2.36106e-4 0.06159073 -0.04396981 2.36106e-4 0.06159073 -0.04396981 -0.01735347 0.09208679 -0.01929003 0.001203954 0.09209072 0.02890992 0.001203954 0.09209072 0.02890992 -0.008458435 0.0920906 0.03052735 -0.001435816 0.06373375 -0.03856003 -0.001435816 0.06373375 -0.03856003 -9.27902e-4 0.09194517 0.02326661 8.55102e-5 0.09195113 0.02778875 -0.02014768 0.08435177 0.01927977 -0.02014768 0.08435177 0.01927977 0.03985244 0.08523476 0.01130992 0.002933502 0.07701975 0.03299999 -0.003019869 0.0630818 -0.04390001 -0.001879394 0.09209072 0.02846992 -1.52171e-4 0.08589076 0.02276182 -0.001087546 0.08589076 0.02306979 0.00160861 0.08055675 0.037 7.29358e-4 0.08589076 0.02919113 -0.002867162 0.08589076 0.02717977 0.001908183 0.08034676 0.04199987 0.01857745 0.07882946 0.04177945 0.01807737 0.07972109 0.04136294 -0.01704436 0.084791 -0.01532709 -0.01669335 0.07059079 0.0406599 -0.008485794 0.06159073 0.04532802 0.002822577 0.07686233 0.03514188 -0.04707545 0.07859319 0.003615677 -0.03145104 0.09109079 -0.01257133 -0.01699167 0.09107065 -0.001007735 0.02221357 0.09202623 -0.02028036 -0.005510687 0.08559077 -0.03028351 0.001324951 0.07605367 0.03510034 -0.01941555 0.08459675 0.01680994 -4.16764e-4 0.08589076 0.02911984 -4.16764e-4 0.08589076 0.02911984 -0.02936041 0.09179776 0.008702754</float_array>
          <technique_common>
            <accessor source="#shape0_003-mesh-positions-array" count="584" stride="3">
              <param name="X" type="float"/>
              <param name="Y" type="float"/>
              <param name="Z" type="float"/>
            </accessor>
          </technique_common>
        </source>
        <source id="shape0_003-mesh-normals">
          <float_array id="shape0_003-mesh-normals-array" count="735">0.02676522 0.9995914 0.01004076 0.0784955 0.9908078 0.1101745 0.00552392 0.9998298 0.01760935 -0.02392721 0.9904164 0.1360251 -0.01007115 0.9999161 -0.008148491 8.54533e-4 0.9998946 0.0144965 0.05926775 0.9981523 -0.01339781 -0.1176185 0.9930436 -0.00552386 -0.003479123 0.9999863 -0.003936946 0.7943954 0.4826679 -0.3687381 0.4965828 0.527377 -0.689405 0.4718204 0.5230309 -0.7098058 0.9858136 -0.03085434 -0.1649838 0.9980937 -0.03061056 0.05359137 0.580292 0.02243161 -0.8140996 0.676372 0.05108952 -0.7347862 9.76606e-4 -0.07550382 0.9971451 0 -0.03823971 0.9992687 0.6366509 -0.0513935 0.7694378 0.3598814 -0.127753 0.9242103 0.5321069 0.06473177 0.8441991 0.8083382 -0.01190257 0.5885981 -0.01648002 0.02966409 -0.9994241 0.1449968 -0.05435472 -0.987938 0.1930608 -0.08829039 -0.9772065 -0.7445455 0.4699646 -0.4741152 -0.8203427 0.5173225 -0.2437528 -0.8998509 0.434376 -0.03982716 -0.5403446 0.5793788 -0.6102033 -0.164958 0.4905709 -0.8556455 -0.3311935 0.4700859 -0.818126 0.1077032 0.5044255 -0.8567116 -0.4297696 0.4832085 0.7627632 -0.6195092 0.4764352 0.6238734 -0.4518726 0.4857798 0.7482175 -0.2865152 0.4651142 0.8376024 -0.6115483 0.4894096 0.6216808 -0.8066806 0.4490579 0.3842048 -0.8527737 0.4736919 0.2199839 0.2882538 -0.3662303 -0.8847514 0.9232469 -0.3780762 0.06836378 0.7296751 0.4654429 -0.5009363 -0.2882538 0.3662303 -0.8847514 0.2770555 -0.3568943 0.8921137 -0.2770479 0.3568846 0.89212 0.6322766 0.5710846 0.5235349 0.03097653 -0.2658796 0.9635085 0.2258397 0.8515686 0.4731038 0.6399276 0.6401412 0.4251025 0.2548032 0.3451395 -0.9033018 -0.2789467 0.5222773 -0.805863 0.01934891 -0.1171009 -0.9929316 0.5801376 -0.2255666 -0.7826623 -0.3831098 0.2066467 0.9002912 0.4997186 0.7848578 -0.3664419 0.9580495 0 -0.286603 0.4915965 0.8708229 6.71413e-4 0.7224914 0.6796113 0.1270227 0.5321926 0.8191945 0.213756 0.7032308 0.5807254 0.4101518 0.3809715 -0.7581586 0.5292034 -0.768138 -0.1195132 0.6290315 -0.02987873 0.9475739 0.3181368 0.8000038 0.4353281 0.4128963 0.7664321 -0.6419742 -0.02124142 0.658937 -0.7477781 -0.08142483 0.6194594 0.06411206 -0.7824064 0.1409205 -0.07028335 -0.987523 0.9170447 -0.1520167 0.3686735 -0.4869374 -0.1990476 0.8504541 0.1611413 0.3933926 0.9051386 0.9582788 0.1323626 -0.2533416 0.1213742 0.08200466 -0.9892137 0.1006523 0.02041733 -0.9947122 0.7863926 0.1064121 0.6084926 0 1 1.54837e-7 0 1 -3.77406e-7 0 1 0 0 1 9.60666e-7 0 1 -2.98029e-6 0 1 -8.88483e-7 0 1 -1.9096e-6 -0.8486754 -0.3279889 -0.4149378 -0.9584554 0.1617212 0.2349672 -0.4726493 0.6604334 -0.5834642 -0.9829126 0.1229022 0.1370328 -0.9332188 0.2332589 -0.2733002 -0.9940783 0.1072146 0.0177012 -0.6571784 -0.6337699 0.4079859 -0.001006603 0.9999994 -4.23342e-4 0.005014359 0.9999865 -0.001434206 -2.56338e-4 0.9999998 -5.81003e-4 0.004672288 0.9999882 -0.001393854 -0.009698987 0.9998505 -0.01432156 0.00357902 0.9999927 0.001335322 0.002097785 0.9999903 -0.003884434 2.51972e-4 1 1.98384e-4 -3.97714e-5 0.9999998 -7.76221e-4 -0.002573788 0.9999223 0.01220673 -5.78022e-4 0.9999998 7.04566e-5 6.22383e-4 0.9999998 2.83317e-4 -5.27522e-4 0.9999998 -5.91574e-4 0 1 -3.84203e-7 -5.42001e-6 1 5.68351e-5 3.19472e-5 1 -4.71668e-5 -5.38155e-5 1 3.66052e-4 -7.36889e-4 0.9999991 -0.001222431 5.96877e-5 1 6.20123e-5 -3.27709e-4 1 1.91841e-4 2.95815e-5 1 -2.67787e-5 4.67861e-5 1 -9.24781e-5 0.004179596 0.9999576 -0.008220732 0.009742677 0.9999361 -0.005739629 -0.004977405 0.9977009 -0.06758779 0.04411607 0.9989063 0.01549458 0.00595355 0.9999113 0.01191818 0.002457916 0.9999939 -0.002529859 4.48487e-4 0.9999999 2.45597e-4 -0.001864194 0.9999973 0.001424908 1.38695e-4 0.9999968 -0.002552747 7.13335e-4 0.9999998 -3.08366e-5 6.03701e-4 0.9999981 -0.001868069 5.13854e-5 1 -1.59549e-4 3.03996e-4 1 -3.79613e-4 1.12332e-4 1 1.75781e-5 -3.46928e-4 0.999989 -0.004677593 0.001340389 0.9999961 -0.002490222 0.00487852 0.9999616 0.007291495 -8.11431e-4 0.9999997 2.4874e-4 -9.99666e-4 0.9999994 -4.49273e-4 -0.008977591 0.9999597 4.95648e-4 0.001170098 0.999999 8.02741e-4 -0.003011107 0.9999668 0.007571816 -0.003463327 0.9999799 -0.005323946 -0.01713788 0.9998494 -0.002739667 0.005577385 0.9999352 -0.009935438 3.62362e-4 0.9999859 0.005315244 -4.1412e-4 0.9999995 -0.001042425 0.005153894 0.9999608 0.007208645 0.002716124 0.03708034 0.9993087 0.03546315 0.04733508 0.9982493 0.005890071 0.0401014 0.9991783 -0.04181051 0.02612394 0.998784 -0.1855872 0.08334791 0.9790866 -0.3687365 0.8562548 -0.3617475 -0.3380656 0.7212086 -0.6046238 -0.6037648 -0.3440449 0.7190975 -0.5880542 0.7362886 0.3347709 -0.9149725 0.2752853 0.2950313 -0.532688 0.8461542 0.01632791 -0.959535 0.197028 -0.2011785 -0.3356824 0.9166488 -0.216962 -0.6322766 -0.5710846 0.5235349 -0.7296608 -0.4654533 -0.5009475 -0.9232469 0.3780762 0.06836378 0.04141449 0.05530071 0.9976105 0.01345866 0.9999091 9.15556e-4 -0.00149542 0.9999601 0.008819997 -0.006134271 0.9999813 -9.15566e-5 -0.01272642 0.9997441 0.01870816 -0.01126152 0.9998973 0.008881032 0.004150569 0.9999914 6.10384e-5 0 1 1.5162e-6 -0.01611399 0.9998612 0.004242122 0.001861631 0.9999157 0.01284837 1.95739e-4 0.9999869 0.005116581 4.57787e-4 0.9999896 0.004547297 0.005798637 0.9999688 0.005371391 0.007110834 0.9999735 0.001556396 0.01727378 0.999715 0.01648032 0.007965445 0.9999586 0.00439471 0.02243161 0.9997485 6.10384e-5 0.001220703 0.9999762 0.006805658 8.24018e-4 0.9999911 0.004150569 0.01385557 0.9998933 -0.00463885 0.004364192 0.9999905 -3.05191e-4 7.11568e-4 0.9999982 0.001815557 0.1323319 0.9900482 -0.04788488 -0.1765853 0.922449 -0.3433738 -0.7972494 0.06195366 0.6004626 -0.8133674 0.05350017 0.5792851 -0.8387698 0.0393092 0.5430655 -0.8784274 0.01461857 0.4776523 0.05682647 -0.2596256 0.9640359 0.09051823 -0.08926695 0.991886 0.06525003 -0.005035638 0.9978563 0.06976747 -0.01587009 0.9974371 0.01306229 0.1053224 0.9943524 -0.004486262 -0.007629752 0.9999609 -0.007354974 0.001770019 0.9999714 -0.003204464 -0.03363168 0.9994292 -0.00564593 0.01770091 0.9998274 0.8649829 -3.35714e-4 0.5018012 0.9142144 -0.03360205 0.4038352 0.878073 -0.008453845 0.4784522 0.9266744 -0.04351985 0.3733371 -0.009460866 0.9996188 0.02594113 -0.02008116 0.9985662 0.04962307 -0.03085488 0.9976715 0.06082469 0.007110774 0.9998503 -0.01577806 -0.005249321 0.9999054 -0.01272654 -0.02014243 0.9993396 -0.03024417 -0.02961456 0.998938 -0.03529721 3.58356e-5 0.9995871 0.02873736 0.6956296 -0.4069157 -0.5920466 -0.461212 0.6485413 -0.6055392 -0.0484333 0.9754112 0.2150049 0.8390036 0.5419906 -0.0481593 0.86067 0.5008189 0.09180152 0.7830919 0.5239229 0.3350702 0.7849141 0.5369485 0.3091864 0.6068453 0.5205368 0.6006499 0.6181946 0.5096383 0.5984182 0.4872384 0.4630978 0.7403643 0.4854058 0.4493017 0.7500061 0.2104573 0.5269979 -0.823396 0.7830929 0.4558658 -0.423027 -0.9990404 -0.03433388 0.02719241 -0.6724082 0.1287317 -0.7289001 -0.6792685 0.06369382 -0.7311208 -0.9773851 -0.03183174 0.2090581 -0.03680586 -0.05960351 -0.9975433 -0.2513859 -0.02050882 -0.9676696 -0.6907923 0.04745668 0.7214941 -0.6919979 0.05041807 0.7201368 -0.2688701 -0.2398467 0.9328358 0 -1 2.03307e-7 0 -1 0 0 -1 0 0 -1 1.79758e-7 0 -1 -1.85795e-6 0 -1 2.90492e-6 0 -1 -1.6003e-6 0 -1 8.83677e-7 0.7506471 0.6286157 0.2033993 -0.989195 0.016698 0.1456517 0.2262102 -0.730636 0.6442049 0.08234083 -0.715096 -0.6941598 0 0 -1 6.45598e-7 0 -1 1.85325e-6 0 1 -6.69369e-7 0 1 -0.6071617 -0.1527823 0.7797514 -3.62505e-6 0 1 0 0 1</float_array>
          <technique_common>
            <accessor source="#shape0_003-mesh-normals-array" count="245" stride="3">
              <param name="X" type="float"/>
              <param name="Y" type="float"/>
              <param name="Z" type="float"/>
            </accessor>
          </technique_common>
        </source>
        <vertices id="shape0_003-mesh-vertices">
          <input semantic="POSITION" source="#shape0_003-mesh-positions"/>
        </vertices>
        <lines count="155">
          <input semantic="VERTEX" source="#shape0_003-mesh-vertices" offset="0"/>
          <p>9 0 500 207 403 131 397 294 509 96 513 89 516 514 538 341 125 124 556 433 557 82 558 10 573 559 301 458 255 253 338 267 350 288 359 337 406 376 447 380 292 296 484 310 218 217 72 455 200 193 497 377 499 97 507 77 92 393 535 530 441 274 402 132 299 289 424 254 322 281 446 381 465 145 508 163 474 175 275 268 321 297 339 90 346 344 356 241 273 262 303 248 314 312 336 282 342 91 215 42 473 412 488 371 407 78 519 467 527 112 529 84 133 98 149 106 552 460 563 554 580 70 399 395 405 85 410 372 221 210 444 263 398 298 469 366 482 283 290 270 293 291 307 183 76 313 449 302 386 385 555 107 213 202 515 227 522 63 534 532 536 79 537 158 546 223 142 113 548 164 495 86 502 94 523 148 198 33 212 184 230 199 280 277 295 256 330 114 335 334 355 352 390 26 404 400 408 373 451 249 417 8 443 396 464 409 151 115 361 265 88 87 528 401 110 93 129 128 252 422 386 68 391 374 413 257 436 331 570 80 454 73 329 328 320 204 369 285 276 272 311 308 345 375 392 109 394 343 432 101 434 332 441 258 442 266 448 211 466 348 476 437 477 452 487 278 496 494 498 111 505 81 457 251 83 315 560 428 439 420 440 287 472 411 475 453 485 462 269 259 279 349 354 123 382 379 566 525 205 206 506 431 511 95 518 486 531 340 99 75</p>
        </lines>
        <triangles material="SWMaterial-2_003-material" count="240">
          <input semantic="VERTEX" source="#shape0_003-mesh-vertices" offset="0"/>
          <input semantic="NORMAL" source="#shape0_003-mesh-normals" offset="1"/>
          <p>318 0 229 1 228 2 416 3 199 4 5 5 229 1 318 0 418 6 228 2 7 7 4 8 1 9 19 10 6 11 12 12 305 13 18 14 232 15 12 12 18 14 225 16 333 17 300 18 224 19 225 16 300 18 568 20 224 19 300 18 463 21 568 20 300 18 35 22 232 15 18 14 463 21 300 18 305 13 387 23 18 14 389 24 12 12 463 21 305 13 35 22 18 14 387 23 196 25 28 26 41 27 30 28 28 26 196 25 34 29 30 28 32 30 34 29 32 30 3 31 456 32 491 33 357 34 456 32 357 34 384 35 491 33 456 32 37 36 39 37 491 33 37 36 39 37 40 38 491 33 40 38 39 37 41 27 28 26 40 38 41 27 168 39 55 40 191 41 168 39 191 41 176 42 364 43 187 44 504 45 55 40 364 43 504 45 55 40 504 45 191 41 378 46 48 47 545 48 53 49 49 50 141 51 53 49 141 51 154 52 177 53 48 47 378 46 47 54 53 49 154 52 56 55 47 54 154 52 50 56 47 54 56 55 479 57 50 56 56 55 58 58 50 56 479 57 166 59 58 58 479 57 545 48 58 58 166 59 326 60 137 61 438 62 326 60 438 62 157 63 67 64 326 60 157 63 67 64 157 63 156 65 581 66 64 66 147 66 582 67 561 67 550 67 316 68 121 69 60 70 316 68 60 70 576 71 118 72 316 68 470 73 316 68 576 71 470 73 71 74 102 74 100 74 415 75 501 75 117 75 501 76 65 76 117 76 65 77 103 77 117 77 103 78 66 78 117 78 66 77 478 77 117 77 478 79 69 79 117 79 104 77 492 77 117 77 492 80 415 80 117 80 565 77 353 77 562 77 108 81 565 81 562 81 105 82 118 72 470 73 105 82 470 73 317 83 121 69 105 82 317 83 121 69 317 83 60 70 119 84 116 84 161 84 120 85 362 86 135 87 120 85 135 87 122 88 122 88 135 87 137 61 363 89 512 89 139 89 435 90 169 90 539 90 139 91 512 91 138 91 172 92 169 92 435 92 325 93 62 93 324 93 62 94 140 94 324 94 169 95 551 95 539 95 140 96 59 96 324 96 139 97 138 97 57 97 172 98 435 98 134 98 59 99 136 99 144 99 144 100 136 100 510 100 59 101 144 101 347 101 139 102 57 102 153 102 551 103 54 103 524 103 524 104 54 104 549 104 324 105 59 105 150 105 539 106 551 106 524 106 136 107 139 107 153 107 59 108 347 108 150 108 549 109 54 109 155 109 510 110 136 110 153 110 510 111 153 111 577 111 150 112 347 112 577 112 347 113 130 113 577 113 130 114 510 114 577 114 134 115 539 115 152 115 134 116 152 116 542 116 524 117 126 117 152 117 539 118 524 118 152 118 172 119 134 119 542 119 152 120 126 120 61 120 173 121 172 121 542 121 173 122 542 122 414 122 126 123 155 123 61 123 159 124 173 124 414 124 325 125 159 125 533 125 159 126 414 126 533 126 54 127 160 127 493 127 155 128 54 128 493 128 61 129 155 129 493 129 533 130 414 130 127 130 414 131 140 131 127 131 61 132 493 132 74 132 363 133 61 133 74 133 325 134 533 134 62 134 74 135 512 135 363 135 62 136 127 136 140 136 512 137 493 137 138 137 493 138 160 138 138 138 46 139 483 140 306 141 46 139 306 141 383 142 146 143 177 53 378 46 49 50 167 144 165 145 49 50 165 145 141 51 143 146 177 53 146 143 171 147 177 53 143 146 171 147 143 146 583 148 174 149 171 147 583 148 174 149 583 148 162 150 179 151 174 149 162 150 167 144 162 150 165 145 167 144 179 151 162 150 364 43 170 152 187 44 575 153 168 39 176 42 575 153 176 42 323 154 170 152 575 153 323 154 170 152 323 154 187 44 483 140 309 155 306 141 194 156 185 157 182 158 194 156 31 159 185 157 31 159 319 160 185 157 197 161 194 156 182 158 185 162 319 162 186 162 197 161 182 158 181 163 197 161 181 163 180 164 540 165 186 165 318 165 540 166 318 0 188 167 197 161 180 164 29 168 29 168 180 164 178 169 188 167 318 0 228 2 188 167 228 2 189 170 51 171 189 170 228 2 178 169 578 172 199 4 29 168 178 169 199 4 51 171 228 2 4 8 578 172 190 173 199 4 52 174 51 171 4 8 199 4 190 173 5 5 190 173 192 175 5 5 5 5 192 175 4 8 192 175 52 174 4 8 186 176 319 176 318 176 195 177 194 156 197 161 32 30 30 28 196 25 304 178 29 168 199 4 426 179 209 180 419 181 209 180 569 182 419 181 461 183 205 184 445 185 205 184 543 186 445 185 445 185 543 186 203 187 45 188 490 189 429 190 461 183 45 188 429 190 205 184 461 183 429 190 490 189 203 187 430 191 429 190 490 189 430 191 203 187 543 186 430 191 544 192 214 193 571 194 214 193 36 195 571 194 480 196 216 197 358 198 425 199 219 200 481 201 219 202 480 202 481 202 219 203 216 203 480 203 541 204 427 204 388 204 208 205 547 205 44 205 14 206 220 206 218 206 25 207 1 9 517 208 23 209 517 208 226 210 23 209 25 207 517 208 23 209 226 210 2 211 2 211 21 212 23 209 21 212 2 211 201 213 201 213 43 214 21 212 3 31 231 215 34 29 19 10 3 31 6 11 19 10 231 215 3 31 1 9 16 216 19 10 1 9 25 207 16 216 574 217 233 218 243 219 574 217 243 219 236 220 35 22 387 23 222 221 35 22 222 221 237 222 574 217 236 220 240 223 35 22 237 222 243 219 38 224 574 217 240 223 233 218 35 22 243 219 327 225 38 224 240 223 225 16 327 225 240 223 225 16 240 223 333 17 572 226 247 226 20 226 11 227 572 227 20 227 17 228 11 228 20 228 22 229 17 229 20 229 24 227 22 227 20 227 27 227 24 227 20 227 13 227 27 227 20 227 15 227 13 227 20 227 244 227 15 227 20 227 242 230 239 230 20 230 245 231 242 231 20 231 234 232 245 232 20 232 235 233 234 233 20 233 246 227 235 227 20 227 238 227 246 227 20 227 247 227 238 227 20 227 423 234 450 234 421 234 250 235 553 235 459 235 468 236 365 236 367 236 521 237 579 237 526 237 520 238 264 238 360 238 261 239 520 239 360 239 564 240 260 240 370 240 564 241 370 241 503 241 271 242 286 242 567 242 489 243 368 243 482 243 351 244 283 244 471 244 284 244 368 244 489 244 284 244 489 244 351 244</p>
        </triangles>
      </mesh>
    </geometry>
  </library_geometries>
  <library_visual_scenes>
    <visual_scene id="Scene" name="Scene">
      <node id="node-shape0-name" name="node-shape0-name" type="NODE">
        <matrix sid="transform">1 0 0 0 0 1 0 0 0 0 1 0 0 0 0 1</matrix>
        <instance_geometry url="#shape0_003-mesh" name="node-shape0-name">
          <bind_material>
            <technique_common>
              <instance_material symbol="SWMaterial-2_003-material" target="#SWMaterial-2_003-material"/>
              <instance_material symbol="SWMaterial-0_003-material" target="#SWMaterial-0_003-material"/>
              <instance_material symbol="SWMaterial-1_003-material" target="#SWMaterial-1_003-material"/>
              <instance_material symbol="SWMaterial-3_001-material" target="#SWMaterial-3_001-material"/>
              <instance_material symbol="SWMaterial-4_001-material" target="#SWMaterial-4_001-material"/>
            </technique_common>
          </bind_material>
        </instance_geometry>
      </node>
      <node id="Light" name="Light" type="NODE">
        <matrix sid="transform">-0.2908646 -0.7711008 0.5663932 4.076245 0.9551712 -0.1998834 0.2183912 1.005454 -0.05518906 0.6045247 0.7946723 5.903862 0 0 0 1</matrix>
        <instance_light url="#Light-light"/>
      </node>
    </visual_scene>
  </library_visual_scenes>
  <scene>
    <instance_visual_scene url="#Scene"/>
  </scene>
</COLLADA>